<?xml version="1.0" standalone="no"?><!DOCTYPE svg PUBLIC "-//W3C//DTD SVG 1.1//EN" "http://www.w3.org/Graphics/SVG/1.1/DTD/svg11.dtd"><svg t="1703820601291" class="icon" viewBox="0 0 1024 1024" version="1.1" xmlns="http://www.w3.org/2000/svg" p-id="12542" xmlns:xlink="http://www.w3.org/1999/xlink" width="200" height="200"><path d="M512 87.771429L146.285714 299.885714V731.428571l365.714286 212.114286 365.714286-212.114286V299.885714L512 87.771429z m36.571429 446.171428l277.942857-160.914286c14.628571-7.314286 21.942857-29.257143 14.628571-51.2s-36.571429-21.942857-51.2-14.628571L512 468.114286 234.057143 307.2c-14.628571-7.314286-36.571429 0-43.885714 14.628571-14.628571 14.628571-7.314286 43.885714 7.314285 51.2l277.942857 160.914286v307.2c0 21.942857 14.628571 36.571429 36.571429 36.571429s36.571429-14.628571 36.571429-36.571429V533.942857z m0-512l365.714285 212.114286c21.942857 14.628571 36.571429 36.571429 36.571429 65.828571V731.428571c0 29.257143-14.628571 51.2-36.571429 65.828572l-365.714285 212.114286c-21.942857 14.628571-51.2 14.628571-73.142858 0l-365.714285-212.114286c-21.942857-21.942857-36.571429-43.885714-36.571429-73.142857V299.885714c0-29.257143 14.628571-51.2 36.571429-65.828571l365.714285-212.114286c21.942857-14.628571 51.2-14.628571 73.142858 0z" fill="#231815" p-id="12543"></path></svg>